# xmcd
#
# Track frame offsets:
# 150
# 18863
# 37980
# 53494
# 70780
# 93794
# 112003
# 133610
# 149509
# 164155
# 189793
# 224981
# 257282
# 275291
# 300051
#
# Disc length: 4247 seconds
#
#
# Revision: 0
# Processed by: cddbd v1.5.1PL0 Copyright (c) Steve Scherf et al.
# Submitted via: CDLP Version 5
#
DISCID=c810950f
DTITLE=STACIE ORRICO - LIVE IN JAPAN
DYEAR=1900
DGENRE=Misc
TTITLE0=Tight
TTITLE1=Bounce Back
TTITLE2=Hesitation
TTITLE3=Instead
TTITLE4=I Promise
TTITLE5=Strong Enogh
TTITLE6=Stuck
TTITLE7=Can't We Be Friends
TTITLE8=Security
TTITLE9=Genuine
TTITLE10=Maybe I Won't Look Back
TTITLE11=(ther's gotta be)More To Life
TTITLE12=Dear Friend
TTITLE13=I Could Be The One
TTITLE14=I Promise(Chris Cox Radio Edit)
EXTD=
EXTT0=
EXTT1=
EXTT2=
EXTT3=
EXTT4=
EXTT5=
EXTT6=
EXTT7=
EXTT8=
EXTT9=
EXTT10=
EXTT11=
EXTT12=
EXTT13=
EXTT14=
PLAYORDER=
